<svg width="24" height="24" viewBox="0 0 24 24" fill="none" xmlns="http://www.w3.org/2000/svg">
<path fill-rule="evenodd" clip-rule="evenodd" d="M14.2593 7.47792L5.2222 16.515C5.01591 16.7213 4.90002 17.0011 4.90002 17.2929L4.90002 19C4.90002 19.0552 4.94479 19.1 5.00002 19.1H6.70712C6.99886 19.1 7.27865 18.9841 7.48494 18.7778L16.522 9.74066L14.2593 7.47792ZM15.5321 6.20513L17.7948 8.46787L18.9262 7.3365C19.1605 7.10219 19.1605 6.72229 18.9262 6.48797L17.512 5.07376C17.2777 4.83944 16.8978 4.83944 16.6635 5.07376L15.5321 6.20513ZM3.94941 15.2423L15.3907 3.80097C16.3279 2.86371 17.8475 2.86371 18.7848 3.80097L20.199 5.21518C21.1363 6.15244 21.1363 7.67203 20.199 8.60929L8.75774 20.0506C8.21388 20.5944 7.47625 20.9 6.70713 20.9L5.00002 20.9C3.95068 20.9 3.10002 20.0493 3.10002 19L3.10002 17.2929C3.10002 16.5237 3.40556 15.7861 3.94941 15.2423Z" fill="#2688EB"/>
</svg>
