<svg width="24" height="24" viewBox="0 0 24 24" fill="none" xmlns="http://www.w3.org/2000/svg">
<path fill-rule="evenodd" clip-rule="evenodd" d="M18.5673 6.91397C18.3707 6.87403 18.1645 6.90473 17.9945 7.00382L17.9693 7.0185L14.2125 8.89381H7.60004C6.82975 8.89381 6.14715 9.17931 5.66269 9.6228C5.22112 10.027 4.90004 10.7971 4.90004 11.4897C4.90004 12.1823 5.22109 12.9522 5.66269 13.3565C5.91072 13.5835 6.21069 13.7692 6.54777 13.8963C6.86908 14.0174 7.22412 14.0854 7.60004 14.0854H8.5154H9.34401H11.3324H14.2125L17.9693 15.961L17.9945 15.9756C18.1102 16.043 18.2511 16.0822 18.4 16.0822C18.618 16.0822 18.8006 16.0017 18.9232 15.8895C19.0444 15.7785 19.1 15.6458 19.1 15.5161V7.46336C19.1 7.37308 19.0723 7.27814 19.0104 7.18922C18.9187 7.05725 18.7639 6.95393 18.5673 6.91397ZM17.115 5.43575C17.6837 5.11375 18.3331 5.03242 18.9263 5.15298C19.5291 5.27549 20.1062 5.61385 20.489 6.16425C20.7541 6.54547 20.9 6.99631 20.9 7.46336V15.5161C20.9 16.1953 20.5975 16.7949 20.1396 17.2141C19.6831 17.632 19.0657 17.8793 18.4 17.8793C17.9509 17.8793 17.5062 17.7651 17.115 17.5437L13.7876 15.8825H11.6501H9.82238H8.46941H7.60004C7.26581 15.8825 6.93915 15.8485 6.62416 15.7836C5.79133 15.612 5.04009 15.2247 4.44621 14.681C3.58487 13.8925 3.10004 12.6172 3.10004 11.4897C3.10004 10.3623 3.58484 9.08676 4.44621 8.29822C5.2647 7.54895 6.3821 7.09671 7.60004 7.09671H13.7876L17.115 5.43575Z" fill="#3F8AE0"/>
<path fill-rule="evenodd" clip-rule="evenodd" d="M14.9 7.99526L14.9 14.984L13.1 14.984L13.1 7.99526H14.9Z" fill="#3F8AE0"/>
<path d="M8.77588 17.6178L8.46941 15.8825H7.60004C7.26581 15.8825 6.93915 15.8485 6.62416 15.7836L7.00322 17.9299C7.12052 18.594 7.50873 19.1391 8.02541 19.4837C8.5413 19.8279 9.19058 19.9771 9.84858 19.8612C10.5066 19.7454 11.0656 19.3835 11.4325 18.884C11.7999 18.3837 11.978 17.7389 11.8607 17.0747L11.6501 15.8825H9.82238L10.0881 17.3868C10.1145 17.5367 10.0775 17.6898 9.98092 17.8213C9.88379 17.9535 9.72987 18.0573 9.53601 18.0914C9.34215 18.1256 9.16195 18.0806 9.02537 17.9895C8.88959 17.8989 8.80235 17.7677 8.77588 17.6178Z" fill="#3F8AE0"/>
</svg>
