<svg width="95" height="32" viewBox="0 0 95 32" fill="none" xmlns="http://www.w3.org/2000/svg">
<path d="M94.096 2.96875H91.063V23.5617H94.096V2.96875Z" fill="#005FF9"/>
<path fill-rule="evenodd" clip-rule="evenodd" d="M87.7847 23.5625H84.7517V8.9695H87.7847V23.5625ZM86.2687 2.4585C87.3987 2.4585 88.3157 3.3755 88.3157 4.5055C88.3157 5.6355 87.3987 6.5535 86.2687 6.5535C85.1387 6.5535 84.2207 5.6355 84.2207 4.5055C84.2207 3.3755 85.1387 2.4585 86.2687 2.4585Z" fill="#005FF9"/>
<path fill-rule="evenodd" clip-rule="evenodd" d="M81.4741 23.5495H78.4921V21.9535C77.4241 23.1635 75.5421 23.9235 73.7721 23.9235C69.5381 23.9235 66.1011 20.4865 66.1011 16.2525C66.1011 12.0195 69.5381 8.58154 73.7721 8.58154C75.5421 8.58154 77.3251 9.24854 78.4921 10.4275V8.95654H81.4741V23.5495ZM73.8691 11.6475C76.4791 11.6475 78.5331 13.5155 78.5331 16.2525C78.5331 18.9905 76.4791 20.8745 73.8691 20.8745C71.2581 20.8745 69.2741 18.8635 69.2741 16.2525C69.2741 13.6425 71.2581 11.6475 73.8691 11.6475Z" fill="#005FF9"/>
<path fill-rule="evenodd" clip-rule="evenodd" d="M43.8418 23.5495H40.8608V8.95654H43.8418V9.97554C44.5038 9.35354 45.7448 8.58454 47.4668 8.58154C49.5818 8.58154 51.1588 9.47154 52.2398 10.9035C53.4218 9.48654 55.3698 8.58154 57.3558 8.58154C61.0808 8.58154 63.6198 11.0975 63.6198 15.0175V23.5495H60.6388V15.0175C60.6388 13.1125 59.0888 11.5635 57.1848 11.5635C55.2798 11.5635 53.7308 13.1125 53.7308 15.0175V23.5495H50.7498V15.0175C50.7498 13.1125 49.1998 11.5635 47.2958 11.5635C45.3908 11.5635 43.8418 13.1125 43.8418 15.0175V23.5495Z" fill="#005FF9"/>
<path d="M20.813 16C20.813 18.654 18.654 20.813 16 20.813C13.346 20.813 11.187 18.654 11.187 16C11.187 13.346 13.346 11.187 16 11.187C18.654 11.187 20.813 13.346 20.813 16ZM16 0C7.178 0 0 7.178 0 16C0 24.822 7.178 32 16 32C19.232 32 22.349 31.038 25.013 29.217L25.059 29.185L22.903 26.679L22.867 26.703C20.816 28.022 18.441 28.72 16 28.72C8.986 28.72 3.28 23.014 3.28 16C3.28 8.986 8.986 3.28 16 3.28C23.014 3.28 28.72 8.986 28.72 16C28.72 16.909 28.619 17.829 28.42 18.734C28.018 20.385 26.862 20.891 25.994 20.824C25.121 20.753 24.1 20.131 24.093 18.609V17.449V16C24.093 11.537 20.463 7.907 16 7.907C11.537 7.907 7.907 11.537 7.907 16C7.907 20.463 11.537 24.093 16 24.093C18.168 24.093 20.201 23.245 21.734 21.704C22.625 23.091 24.078 23.961 25.731 24.093C25.873 24.105 26.018 24.111 26.162 24.111C27.325 24.111 28.479 23.722 29.409 23.015C30.368 22.287 31.084 21.234 31.48 19.969C31.543 19.765 31.659 19.297 31.66 19.294L31.663 19.277C31.896 18.262 32 17.25 32 16C32 7.178 24.822 0 16 0" fill="#FF9E00"/>
</svg>
