<svg width="974" height="180" viewBox="0 0 974 180" fill="#000000" xmlns="http://www.w3.org/2000/svg">
<path d="M311.267 135H287.579L253.873 45.0025H271.335L298.273 119.171H300.98L328.865 45.0025H346.056L311.267 135Z" fill="#000000"/>
<path d="M391.155 88.4056L435.013 135H413.625L377.889 96.4479H373.829V135H357.585V45.0025H373.829V81.6398H377.754L411.595 45.0025H431.629L391.155 88.4056Z" fill="#000000"/>
<path d="M489.486 135H473.649V45.0025H499.097L525.087 113.043H527.253L553.784 45.0025H578.691V135H562.853V65.4275H560.687L533.479 135H518.318L491.652 65.4275H489.486V135Z" fill="#000000"/>
<path d="M647.696 68.6189H663.534L634.701 143.298C632.265 149.595 629.106 154.148 625.226 156.957C621.436 159.765 616.337 161.169 609.93 161.169H599.236L597.883 147.766H611.013C613.63 147.766 615.615 147.212 616.969 146.106C618.413 145.085 619.631 143.255 620.624 140.617L621.436 138.574L590.167 68.6189H606.817L627.527 116.49H629.693L647.696 68.6189Z" fill="#000000"/>
<path d="M712.5 101.171C716.38 102.278 719.583 104.192 722.11 106.916C724.727 109.554 726.036 112.83 726.036 116.745C726.036 120.405 724.818 123.724 722.381 126.702C720.035 129.596 716.606 131.936 712.093 133.723C707.672 135.426 702.573 136.277 696.797 136.277C689.127 136.277 682.539 134.574 677.034 131.17C671.62 127.766 668.055 123.256 666.341 117.639L680.689 115.341C682.223 118.32 684.254 120.49 686.78 121.851C689.307 123.128 692.601 123.766 696.662 123.766C701.084 123.766 704.468 123.043 706.814 121.596C709.251 120.149 710.469 118.149 710.469 115.596C710.469 110.575 705.867 108.065 696.662 108.065H687.863V95.299H696.662C700.813 95.299 703.972 94.6607 706.137 93.3841C708.303 92.0225 709.386 90.1927 709.386 87.8949C709.386 85.4269 708.258 83.4695 706.002 82.0228C703.746 80.576 700.948 79.8526 697.609 79.8526C694.271 79.8526 691.247 80.6185 688.54 82.1504C685.923 83.6823 683.893 85.7673 682.449 88.4056L668.1 86.1077C670.176 79.9803 673.876 75.3421 679.2 72.1932C684.615 68.9593 690.932 67.3423 698.151 67.3423C703.295 67.3423 707.897 68.1508 711.958 69.7678C716.019 71.3848 719.177 73.64 721.433 76.5336C723.78 79.4271 724.953 82.7036 724.953 86.3631C724.953 90.0225 723.78 93.1714 721.433 95.8096C719.177 98.4478 716.199 100.235 712.5 101.171Z" fill="#000000"/>
<path d="M740.907 135V68.6189H756.474V87.512H767.438C773.033 87.512 777.996 88.5332 782.328 90.5757C786.66 92.5331 790.044 95.3415 792.48 99.001C794.917 102.575 796.135 106.66 796.135 111.256C796.135 115.852 794.917 119.979 792.48 123.639C790.044 127.213 786.615 130.021 782.193 132.064C777.861 134.021 772.943 135 767.438 135H740.907ZM820.094 135H804.528V68.6189H820.094V135ZM767.438 122.234C771.318 122.234 774.477 121.213 776.913 119.171C779.35 117.128 780.568 114.49 780.568 111.256C780.568 108.022 779.35 105.384 776.913 103.341C774.477 101.299 771.318 100.278 767.438 100.278H756.474V122.234H767.438Z" fill="#000000"/>
<path d="M901.833 135H881.393L857.027 108.575H853.237V135H837.671V68.6189H853.237V94.4054H857.027L880.581 68.6189H899.126L869.481 100.533L901.833 135Z" fill="#000000"/>
<path d="M936.693 67.3423C945.717 67.3423 952.801 70.0231 957.945 75.3846C963.179 80.6611 965.796 88.1077 965.796 97.7244V135H954.29L951.042 124.532C949.056 127.681 946.123 130.447 942.243 132.83C938.363 135.128 933.76 136.277 928.436 136.277C923.743 136.277 919.502 135.383 915.712 133.596C912.012 131.809 909.124 129.298 907.049 126.064C904.973 122.83 903.935 119.171 903.935 115.086C903.935 108.788 906.552 103.767 911.786 100.022C917.111 96.1926 924.826 94.2777 934.933 94.2777H950.094C949.733 89.8523 948.289 86.3631 945.762 83.8099C943.326 81.1717 940.032 79.8526 935.881 79.8526C932.542 79.8526 929.654 80.6185 927.218 82.1504C924.781 83.6823 922.976 85.5546 921.803 87.7673L907.455 85.4695C909.169 79.8526 912.689 75.4272 918.013 72.1932C923.427 68.9593 929.654 67.3423 936.693 67.3423ZM932.091 123.894C937.505 123.894 941.882 122.234 945.221 118.915C948.56 115.596 950.229 111.213 950.229 105.767H935.475C924.917 105.767 919.637 108.66 919.637 114.447C919.637 117.341 920.765 119.639 923.021 121.341C925.277 123.043 928.301 123.894 932.091 123.894Z" fill="#000000"/>
<path d="M0 86.4C0 45.666 0 25.308 13.418 12.654C26.836 0 48.4232 0 91.6166 0L99.2513 0C142.445 0 164.032 0 177.45 12.654C190.868 25.308 190.868 45.666 190.868 86.4V93.6C190.868 134.334 190.868 154.692 177.45 167.346C164.032 180 142.445 180 99.2513 180H91.6166C48.4232 180 26.836 180 13.418 167.346C0 154.692 0 134.334 0 93.6L0 86.4Z" fill="#0077FF"/>
<path d="M0 93.6C0 134.334 0 154.692 13.418 167.346C26.836 180 48.4232 180 91.6166 180H99.2513C142.445 180 164.032 180 177.45 167.346C190.868 154.692 190.868 134.334 190.868 93.6V86.4C190.868 78.822 190.868 71.946 190.772 65.7C189.532 64.8 188.043 63.684 186.363 62.388C174.396 53.244 151.816 36 125.973 36C108.604 36 94.7277 45 79.1338 55.116C59.1881 68.04 36.4367 82.8 0 82.8C0 83.988 0 85.176 0 86.4L0 93.6Z" fill="#F45FFF"/>
<path d="M147.923 91.764C147.923 87.318 151.797 83.7 156.512 83.7C161.226 83.7 165.101 87.3 165.101 91.764V124.254C165.101 128.7 161.226 132.3 156.512 132.3C151.797 132.3 147.923 128.7 147.923 124.254V91.764Z" fill="#ffffff"/>
<path d="M117.384 71.064C117.384 66.618 121.258 63 125.973 63C130.687 63 134.562 66.6 134.562 71.064V144.954C134.562 149.4 130.687 153 125.973 153C121.258 153 117.384 149.4 117.384 144.954L117.384 71.064Z" fill="#ffffff"/>
<path d="M86.8448 91.746C86.8448 87.3 90.7195 83.7 95.4339 83.7C100.148 83.7 104.023 87.3 104.023 91.746V124.236C104.023 128.682 100.148 132.282 95.4339 132.282C90.7195 132.282 86.8448 128.682 86.8448 124.236V91.746Z" fill="#ffffff"/>
<path d="M56.306 103.446C56.306 99 60.1806 95.4 64.8951 95.4C69.6095 95.4 73.4841 99 73.4841 103.446V112.536C73.4841 116.982 69.6095 120.6 64.8951 120.6C60.1806 120.6 56.306 117 56.306 112.536V103.446Z" fill="#ffffff"/>
<path d="M25.7671 103.446C25.7671 99 29.6417 95.4 34.3561 95.4C39.0706 95.4 42.9452 99 42.9452 103.446V112.536C42.9452 116.982 39.0706 120.6 34.3561 120.6C29.6417 120.6 25.7671 117 25.7671 112.536L25.7671 103.446Z" fill="#ffffff"/>
</svg>
