<svg width="111" height="24" viewBox="0 0 111 24" fill="none" xmlns="http://www.w3.org/2000/svg">
<path fill-rule="evenodd" clip-rule="evenodd" d="M24.2182 12.5C24.2182 17.92 24.2182 20.63 22.5229 22.32C20.8175 24 18.0829 24 12.6136 24H11.6045C6.13527 24 3.40064 24 1.69527 22.32C0 20.63 0 17.92 0 12.5V11.5C0 6.08 0 3.37 1.69527 1.68C3.40064 0 6.13527 0 11.6045 0H12.6136C18.0829 0 20.8175 0 22.5229 1.68C24.2182 3.37 24.2182 6.08 24.2182 11.5V12.5Z" fill="#0077FF"/>
<path d="M10.0203 0C14.4603 0.02 16.8215 0.17 18.3453 1.68C20.0405 3.37 20.0405 6.08 20.0405 11.5V12.5C20.0405 17.92 20.0405 20.63 18.3453 22.32C16.8215 23.82 14.4502 23.98 10.0203 24C5.59036 23.98 3.22909 23.83 1.69527 22.32C0 20.63 0 17.92 0 12.5V11.5C0 6.08 0 3.37 1.69527 1.68C3.22909 0.17 5.59036 0.02 10.0203 0Z" fill="#FF2B42"/>
<path fill-rule="evenodd" clip-rule="evenodd" d="M8.11312 8.32C8.04128 8.29029 7.96358 8.27712 7.88586 8.28148C7.80815 8.28583 7.73244 8.3076 7.66444 8.34514C7.59644 8.38269 7.53792 8.43503 7.49328 8.49823C7.44865 8.56143 7.41906 8.63383 7.40675 8.71C7.2 9.78445 7.09862 10.8762 7.10403 11.97C7.10403 13.11 7.20494 14.22 7.42693 15.29C7.4379 15.3671 7.46652 15.4406 7.51059 15.505C7.55466 15.5694 7.61302 15.623 7.68119 15.6616C7.74937 15.7002 7.82555 15.7228 7.90392 15.7277C7.98228 15.7327 8.06074 15.7198 8.1333 15.69C10.1556 14.9529 12.0133 13.832 13.6026 12.39C13.657 12.3404 13.7005 12.2801 13.7302 12.2129C13.7599 12.1458 13.7752 12.0733 13.7752 12C13.7752 11.9267 13.7599 11.8542 13.7302 11.7871C13.7005 11.7199 13.657 11.6596 13.6026 11.61C12.0074 10.1658 10.1425 9.04479 8.11312 8.31V8.32ZM4.94457 8.23C5.02768 7.80413 5.20299 7.40118 5.45842 7.04894C5.71385 6.69669 6.04332 6.40352 6.42412 6.18965C6.80492 5.97577 7.228 5.84628 7.66418 5.81008C8.10036 5.77389 8.53927 5.83186 8.95066 5.98C11.2889 6.82228 13.4383 8.1098 15.2777 9.77C15.5931 10.0513 15.8454 10.3952 16.018 10.7794C16.1907 11.1636 16.2799 11.5794 16.2799 12C16.2799 12.4206 16.1907 12.8364 16.018 13.2206C15.8454 13.6048 15.5931 13.9487 15.2777 14.23C13.4434 15.8844 11.3011 17.1684 8.97084 18.01C8.56086 18.1582 8.12338 18.2169 7.68839 18.1819C7.25339 18.1469 6.83118 18.0191 6.45068 17.8073C6.07017 17.5955 5.74038 17.3047 5.48391 16.9548C5.22743 16.6048 5.05033 16.2041 4.96475 15.78C4.71073 14.5256 4.58229 13.2494 4.5813 11.97C4.5813 10.69 4.71248 9.44 4.94457 8.23Z" fill="white"/>
<path d="M34.5716 18.06H37.5988L42.0186 6H39.8188L36.2668 15.94H35.9237L32.5029 6H30.2728L34.5716 18.06ZM53.3709 18.06L47.7806 11.82L52.937 6H50.384L46.0651 10.9H45.5606V6H43.4919V18.06H45.5706V12.89H46.0853L50.6363 18.06H53.3709ZM65.2479 11.86C65.775 11.6654 66.2271 11.3117 66.5403 10.8488C66.8535 10.3858 67.0121 9.83708 66.9937 9.28C66.9937 7.37 65.3892 6 63.038 6H58.2953V18.06H63.3811C65.7525 18.06 67.3569 16.69 67.3569 14.69C67.3569 13.29 66.5597 12.24 65.2479 11.87V11.86ZM60.3639 7.8H63.038C64.148 7.8 64.9048 8.46 64.9048 9.46C64.9048 10.43 64.148 11.1 63.038 11.1H60.3639V7.8ZM63.3912 16.26H60.3639V12.9H63.3912C64.4709 12.9 65.2277 13.59 65.2277 14.58C65.2277 15.58 64.4709 16.28 63.3811 16.28L63.3912 16.26ZM69.2439 18.06H72.0593L75.4095 11.46H75.6819V18.06H77.579V9.16H74.7737L71.4337 15.76H71.1511V9.16H69.254L69.2439 18.06ZM78.8807 20.71H80.8687V18.06H87.3268V20.71H89.3047V16.26H87.7507V9.16H81.1714L80.7274 13.71C80.576 15.32 80.0917 16.26 79.1128 16.26H78.8807V20.71ZM81.908 16.26C82.3823 15.8 82.5942 15.01 82.7254 13.68L83.0079 10.96H85.7627V16.26H81.908ZM99.3148 13.51C99.3278 12.9044 99.2153 12.3025 98.9843 11.7417C98.7533 11.1809 98.4087 10.6729 97.9718 10.2493C97.5348 9.82569 97.0149 9.49537 96.444 9.27876C95.8732 9.06216 95.2635 8.96388 94.6528 8.99C94.035 8.96751 93.4191 9.0717 92.8438 9.29605C92.2684 9.5204 91.746 9.86007 91.3093 10.2938C90.8726 10.7275 90.531 11.2459 90.3058 11.8166C90.0807 12.3872 89.9769 12.9978 90.0009 13.61C89.9768 14.2231 90.0809 14.8345 90.3066 15.4059C90.5324 15.9772 90.8749 16.4961 91.3127 16.93C91.7506 17.3639 92.2742 17.7033 92.8507 17.927C93.4272 18.1508 94.0442 18.2539 94.6629 18.23C96.5197 18.23 98.2856 17.36 98.9516 15.66L97.0948 15.36C96.826 15.7131 96.4738 15.9954 96.0691 16.1819C95.6644 16.3685 95.2196 16.4537 94.7739 16.43C93.2603 16.43 92.2512 15.51 92.0696 14.14H99.2846C99.3047 13.95 99.3148 13.74 99.3148 13.51ZM94.6528 10.71C95.9041 10.71 96.8325 11.49 97.1655 12.61H92.1907C92.3253 12.0629 92.643 11.5772 93.092 11.2322C93.541 10.8871 94.0948 10.703 94.6629 10.71H94.6528ZM105.147 18.23C107.953 18.23 109.941 16.31 109.941 13.61C109.941 10.91 107.953 9 105.147 9C102.332 9 100.344 10.92 100.344 13.62C100.344 16.32 102.332 18.24 105.147 18.24V18.23ZM105.147 16.43C103.523 16.43 102.423 15.29 102.423 13.61C102.423 11.94 103.523 10.79 105.147 10.79C106.762 10.79 107.872 11.94 107.872 13.61C107.872 15.29 106.762 16.43 105.147 16.43Z" fill="black"/>
</svg>
